HIERARCHY
ROOT Root
{
	OFFSET 0.000000 0.000000 0.000000
	CHANNELS 6 Xposition Yposition Zposition Xrotation Yrotation Zrotation
	JOINT Pelvis_R
	{
		OFFSET 0.000000 0.000000 0.100000
		CHANNELS 3 Xrotation Yrotation Zrotation
		JOINT Thigh_R
		{
			OFFSET 0.000000 -0.000000 0.090000
			CHANNELS 3 Xrotation Yrotation Zrotation
			JOINT Shin_R
			{
				OFFSET 0.000000 -0.000000 0.500000
				CHANNELS 3 Xrotation Yrotation Zrotation
				JOINT Foot_R
				{
					OFFSET 0.000000 -0.000000 0.415000
					CHANNELS 3 Xrotation Yrotation Zrotation
					End Site
					{
						OFFSET 0.000000 -0.000000 0.185000
					}
				}
			}
		}
	}
	JOINT Pelvis_L
	{
		OFFSET 0.000000 0.000000 0.100000
		CHANNELS 3 Xrotation Yrotation Zrotation
		JOINT Thigh_L
		{
			OFFSET 0.000000 -0.000000 0.090000
			CHANNELS 3 Xrotation Yrotation Zrotation
			JOINT Shin_L
			{
				OFFSET 0.000000 -0.000000 0.500000
				CHANNELS 3 Xrotation Yrotation Zrotation
				JOINT Foot_L
				{
					OFFSET 0.000000 -0.000000 0.415000
					CHANNELS 3 Xrotation Yrotation Zrotation
					End Site
					{
						OFFSET 0.000000 -0.000000 0.185000
					}
				}
			}
		}
	}
	JOINT Spine
	{
		OFFSET 0.000000 0.000000 0.100000
		CHANNELS 3 Xrotation Yrotation Zrotation
		JOINT Neck
		{
			OFFSET 0.000000 -0.000000 0.525000
			CHANNELS 3 Xrotation Yrotation Zrotation
			JOINT Head
			{
				OFFSET 0.000000 -0.000000 0.165000
				CHANNELS 3 Xrotation Yrotation Zrotation
				End Site
				{
					OFFSET 0.000000 -0.000000 0.095000
				}
			}
		}
		JOINT Shoulder_R
		{
			OFFSET 0.000000 -0.000000 0.525000
			CHANNELS 3 Xrotation Yrotation Zrotation
			JOINT Upperarm_R
			{
				OFFSET 0.000000 -0.000000 0.165000
				CHANNELS 3 Xrotation Yrotation Zrotation
				JOINT Forearm_R
				{
					OFFSET 0.000000 -0.000000 0.260000
					CHANNELS 3 Xrotation Yrotation Zrotation
					JOINT Hand_R
					{
						OFFSET 0.000000 -0.000000 0.240000
						CHANNELS 3 Xrotation Yrotation Zrotation
						End Site
						{
							OFFSET 0.000000 -0.000000 0.075000
						}
					}
				}
			}
		}
		JOINT Shoulder_L
		{
			OFFSET 0.000000 -0.000000 0.525000
			CHANNELS 3 Xrotation Yrotation Zrotation
			JOINT Upperarm_L
			{
				OFFSET 0.000000 -0.000000 0.165000
				CHANNELS 3 Xrotation Yrotation Zrotation
				JOINT Forearm_L
				{
					OFFSET 0.000000 -0.000000 0.260000
					CHANNELS 3 Xrotation Yrotation Zrotation
					JOINT Hand_L
					{
						OFFSET 0.000000 -0.000000 0.240000
						CHANNELS 3 Xrotation Yrotation Zrotation
						End Site
						{
							OFFSET 0.000000 -0.000000 0.075000
						}
					}
				}
			}
		}
	}
}
MOTION
Frames: 15
Frame Time: 0.041667
-0.024039 0.868190 -0.000072 -0.000000 0.000000 -0.000000 275.736021 -80.692558 284.922653 -80.687320 4.453522 87.457950 15.768933 4.753295 3.869213 -26.339469 14.934861 17.387700 275.736130 99.307433 -266.399453 -95.215890 18.788735 -85.985422 19.105562 -3.454981 -1.549680 -27.566227 -8.256952 -12.269725 89.167519 -4.489696 4.424997 37.977474 6.199297 -16.806784 -3.346937 -4.653363 7.689317 5.544559 -105.359684 115.484757 -54.764716 12.452632 66.874273 -121.814238 29.069569 248.864335 33.077534 -28.096601 65.067018 5.544622 74.640341 -75.976422 -86.410615 29.358018 -64.664003 -137.030848 1.761197 -294.206628 -3.928738 25.040384 -22.075661 
-0.035965 0.812029 -0.000052 -0.000000 0.000000 -0.000000 286.201865 -81.775198 293.946207 -82.709506 3.535616 87.163083 21.392711 4.367251 3.358730 -35.556688 11.607159 12.907847 286.201920 98.224793 -278.141532 -94.463162 17.326250 -88.482321 21.990860 -0.595671 0.717607 -38.938553 -5.415163 -11.618282 94.484732 -4.323170 4.675152 42.820215 7.056465 -23.800202 -12.637868 -8.963665 11.732535 4.355378 -103.087116 117.195678 -59.514464 7.954694 70.477689 -126.986781 14.220546 288.095139 0.517923 -29.579230 32.424708 4.355438 76.912889 -81.967809 -80.507617 25.078482 -64.102329 -129.877563 -5.077378 -266.373389 18.647562 27.668876 -48.533630 
-0.032467 0.759133 -0.000053 -0.000000 0.000000 -0.000000 286.866606 -75.508786 300.251619 -77.832055 10.713757 84.771090 21.835000 3.888368 3.316012 -41.429557 10.503236 10.772444 286.866606 104.491212 -272.466628 -100.786374 25.319322 -88.417776 25.377834 0.052719 1.381230 -43.140947 -5.670297 -13.449176 98.545983 -4.572149 5.309564 38.491381 4.160808 -16.589662 -11.217101 -5.131287 7.562872 5.538368 -104.195799 123.831494 -59.619034 5.431863 69.587996 -130.914823 4.171866 315.423928 -11.096281 -17.127615 13.773639 5.538447 75.804199 -85.686984 -80.653551 28.667031 -64.503589 -112.296103 -6.412934 -238.295109 30.572733 22.571342 -64.105697 
-0.032353 0.808405 -0.000022 -0.000000 0.000000 -0.000000 314.663837 -80.144784 321.281717 -83.633747 3.259358 82.615072 17.953695 4.128908 3.246634 -36.667013 6.599808 6.579129 314.663864 99.855214 -307.194342 -92.030269 18.618713 -93.104494 23.730874 -3.153727 -1.024438 -36.291206 -13.158301 -21.280708 94.845257 -4.141077 4.506596 40.431906 3.036050 -12.796445 -7.467358 0.641277 -2.352470 13.944194 -103.462811 126.462223 -62.208625 7.069347 71.076342 -141.598482 4.006890 322.925197 -8.552754 -16.547564 15.673811 13.944271 76.537215 -91.982984 -79.702215 20.354546 -66.410776 -104.832865 -21.642807 -194.961152 48.955108 -3.260736 -83.090692 
-0.031624 0.844708 -0.000054 -0.000000 0.000000 -0.000000 284.271271 -79.853408 293.896647 -80.441201 5.299380 86.022134 16.736566 4.920682 3.963824 -34.867562 12.424410 15.072662 284.271244 100.146583 -274.217287 -95.641998 16.451463 -87.415520 20.022660 -3.486969 -1.379739 -35.104748 -8.014687 -12.956809 90.753789 -4.023717 4.076959 42.389868 3.031385 -12.086713 -2.743749 0.602099 -1.679071 6.951986 -104.223749 116.630821 -61.318795 6.949819 72.705806 -139.318838 2.756711 325.409446 -8.450611 -17.257202 17.358461 6.952027 75.776277 -80.273943 -81.863007 25.128558 -64.695552 -97.263465 -9.313398 -197.381689 37.469492 9.286436 -74.028158 
-0.034094 0.844899 -0.000054 -0.000000 0.000000 -0.000000 270.934534 -84.353191 276.576079 -84.566211 0.290053 89.552092 17.195906 3.624283 2.993326 -33.103021 13.579450 17.416882 270.934698 95.646807 -265.284110 -93.000887 9.833757 -87.121570 16.044994 -1.953945 -0.879890 -34.145717 -3.852767 -6.674158 92.984563 -3.639868 3.834445 41.794679 1.687769 -8.902384 -5.809451 0.412693 -1.317851 1.842879 -102.913274 112.230103 -60.453533 8.312672 71.543349 -144.976543 4.231859 319.246703 -3.793192 -18.880893 20.714068 1.842883 77.086731 -78.803519 -80.807668 21.028459 -64.691590 -106.812718 -10.316533 -215.314624 33.042935 18.406694 -65.514437 
-0.055511 0.508639 -0.000062 -0.000000 0.000000 -0.000000 263.822832 -81.269409 272.574545 -82.766504 9.918464 91.373403 24.456003 1.604410 1.546596 -31.021053 6.579607 5.541377 263.823023 98.730583 -255.213379 -98.414481 10.346841 -87.377743 23.029550 -0.520897 -0.207632 -36.212215 1.874655 2.416556 107.749752 -3.039441 4.163420 22.571197 2.528379 -7.816196 -13.486722 1.236861 -2.692040 -15.516457 -99.506861 106.377621 -60.761363 2.413321 70.028509 -139.765519 8.696859 302.487550 7.970650 -25.146226 35.989561 -15.516441 80.493165 -79.031511 -77.079948 26.055920 -64.352594 -106.684270 0.467906 -248.933512 21.813710 35.563091 -58.402011 
-0.084276 0.449386 -0.000085 -0.000000 0.000000 -0.000000 285.699109 -98.149135 277.699290 -97.925139 -4.138965 91.028527 30.554476 5.110976 2.661222 -42.570346 1.988055 -0.851178 285.698999 81.850863 -293.397169 -75.707531 -11.338844 -79.885408 19.696065 -14.219327 -7.469735 -40.074195 2.866112 8.139387 113.633584 0.188410 -0.288105 17.552567 1.906977 -4.074558 -13.165872 -3.381231 4.533779 -41.391687 -103.120038 84.860640 -60.366366 2.943255 70.101442 -133.070294 16.683381 279.763210 9.297731 -16.453080 27.560679 -41.391701 76.879954 -60.412258 -80.954899 23.790664 -66.703648 -119.310742 3.079634 -288.348703 -5.659581 32.115563 -29.166065 
-0.060172 0.688317 -0.000092 -0.000000 0.000000 -0.000000 255.054618 -82.938065 261.988298 -82.365900 4.522295 90.180900 20.329143 3.560628 2.367751 -33.989272 6.812369 7.490471 255.054645 97.061926 -248.337673 -95.808477 12.263848 -86.191066 21.856891 -1.305262 -0.522842 -37.001669 -5.255720 -7.902953 100.846999 -1.791155 2.166862 32.433587 4.342350 -11.958971 -14.524819 -3.548500 3.447441 -29.148963 -101.099565 85.090278 -60.279261 3.442430 71.768684 -118.138586 23.428153 252.488598 25.912833 -24.892515 55.749619 -29.148911 78.900453 -59.604677 -82.858056 23.688293 -65.937362 -128.812737 10.536480 -314.859809 -20.487513 15.480702 -4.279977 
-0.025715 0.830122 -0.000070 -0.000000 0.000000 -0.000000 265.623161 -81.532733 274.113632 -81.239766 5.030868 89.093411 20.277788 4.776035 3.459953 -37.114138 14.616229 17.995884 265.623325 98.467258 -257.227902 -96.934598 17.164310 -86.486191 20.949759 0.527270 1.079202 -41.768687 -8.032234 -16.365581 95.292648 -3.903554 4.281548 35.150732 7.339861 -19.691540 -3.562691 -7.252069 12.686251 -13.793824 -103.608765 100.455315 -54.471732 7.747513 67.550120 -108.954577 28.457473 228.699513 37.005852 -15.443619 68.023561 -13.793811 76.391247 -64.838849 -88.726357 30.101890 -64.289094 -124.905104 12.375310 -318.286651 -20.646646 16.276255 -6.447921 
-0.030262 0.847770 -0.000063 -0.000000 0.000000 -0.000000 279.533278 -80.109424 289.150758 -80.286804 5.602836 86.704641 18.615020 5.670616 4.349608 -30.865898 11.554387 12.271813 279.533251 99.890574 -269.637482 -97.152283 20.812099 -87.787226 19.300465 -0.303320 0.636340 -36.054250 -8.551826 -16.450608 93.302980 -3.695116 3.914349 36.358859 5.621707 -15.699799 -5.015550 -6.507941 10.917006 -4.530759 -103.406516 107.012651 -55.326926 8.627275 66.725190 -114.198256 31.086138 232.043956 30.674458 -17.950833 55.196384 -4.530713 76.593516 -72.314614 -86.285336 29.215154 -65.708387 -128.207377 7.682343 -305.621432 -13.165516 25.329932 -18.283610 
-0.025032 0.851930 -0.000076 -0.000000 0.000000 -0.000000 272.580637 -83.140034 279.415253 -82.479110 2.532211 88.092297 18.270833 5.459453 4.052847 -32.532604 13.411145 15.932108 272.580665 96.859964 -265.709167 -94.357206 15.521345 -87.226030 20.202984 -0.922551 0.126435 -35.938485 -5.335772 -10.038573 92.958813 -3.986495 4.197682 36.780644 6.015962 -16.861871 -4.721986 -5.204076 8.567600 -4.460438 -102.563439 106.194231 -56.931095 7.711244 68.749740 -120.359217 24.436515 254.333814 25.229477 -25.418756 55.067137 -4.460391 77.436587 -72.611550 -84.133915 28.442585 -64.531696 -124.364726 5.001716 -292.519517 -10.165491 27.661990 -19.249729 
-0.035707 0.807647 -0.000086 -0.000000 0.000000 -0.000000 274.012382 -84.319669 279.659227 -85.014921 0.742717 89.739561 19.520329 3.242458 2.703116 -39.925137 11.016453 14.172030 274.012546 95.680329 -268.326413 -92.497748 13.242988 -86.990184 20.405784 -2.164550 -0.646264 -41.721927 -4.581127 -9.513568 100.952265 -3.593703 4.355144 36.407661 4.507741 -16.163757 -13.066120 -5.633347 7.650301 -6.860762 -101.407422 110.466391 -60.057307 3.774498 70.302345 -124.428438 15.032999 282.029439 6.520902 -24.747995 34.437284 -6.860742 78.592562 -78.974281 -81.441379 28.523915 -65.554796 -112.741712 0.487348 -266.952316 8.917544 34.554029 -43.723948 
-0.035876 0.808569 -0.000040 -0.000000 0.000000 -0.000000 293.289388 -80.621080 301.637382 -82.502292 7.266637 86.335510 18.960286 3.219568 2.658103 -36.354573 9.929149 10.718040 293.289416 99.378918 -284.383997 -96.060341 17.958108 -90.610526 21.404694 0.123809 0.892954 -38.850232 -5.485564 -11.257331 95.469215 -3.565257 3.922657 38.987707 2.411691 -10.237481 -9.010794 -2.151966 3.215401 1.125230 -103.015126 114.082485 -59.456414 4.494863 69.347539 -129.640925 8.065661 300.599303 -5.294876 -21.879611 20.687859 1.125293 76.984858 -80.366239 -81.344001 26.109445 -65.481700 -110.930591 -1.651150 -250.695892 11.572375 29.947866 -40.829075 
-0.027038 0.798034 -0.000037 -0.000000 0.000000 -0.000000 289.977976 -79.075060 299.925792 -79.711955 9.124042 84.599877 21.011019 3.680988 2.571551 -40.985711 10.153132 11.809014 289.978003 100.924938 -279.361895 -97.748859 16.229187 -89.882817 23.332999 -0.685998 0.400155 -41.498334 -8.660319 -15.198248 95.822179 -3.991134 4.418392 38.610257 0.403953 -6.019000 -8.282254 2.085594 -4.103324 4.448511 -102.995448 118.103560 -59.016079 5.205638 68.623245 -133.429084 4.005692 310.020265 -7.080116 -19.445695 18.429636 4.448564 77.004557 -83.689522 -81.454316 24.742437 -65.704487 -101.319395 -4.987379 -217.827191 32.550718 20.807669 -69.652104 
